<svg width="221" height="221" viewBox="0 0 221 221" fill="none" xmlns="http://www.w3.org/2000/svg">
<rect width="221" height="221" rx="15" fill="#53439A"/>
<g filter="url(#filter0_f_10_13)">
<mask id="mask0_10_13" style="mask-type:alpha" maskUnits="userSpaceOnUse" x="127" y="32" width="55" height="75">
<rect x="127.381" y="32" width="54.619" height="74.028" fill="#D9D9D9"/>
</mask>
<g mask="url(#mask0_10_13)">
<path d="M138.76 96.7745C137.508 96.7745 136.436 96.1709 135.544 94.9639C134.654 93.7548 134.208 92.302 134.208 90.6055V47.4225C134.208 45.726 134.654 44.2732 135.544 43.0641C136.436 41.857 137.508 41.2535 138.76 41.2535H163.794L175.173 56.676V90.6055C175.173 92.302 174.727 93.7548 173.837 94.9639C172.945 96.1709 171.873 96.7745 170.621 96.7745H138.76ZM138.76 90.6055H170.621V59.7605H161.518V47.4225H138.76V90.6055ZM143.312 84.4365H166.069V78.2675H143.312V84.4365ZM143.312 59.7605H154.69V53.5915H143.312V59.7605ZM143.312 72.0985H166.069V65.9295H143.312V72.0985Z" fill="#1C1B1F"/>
</g>
</g>
<g filter="url(#filter1_d_10_13)">
<mask id="mask1_10_13" style="mask-type:luminance" maskUnits="userSpaceOnUse" x="120" y="36" width="55" height="75">
<g style="mix-blend-mode:difference">
<path d="M120 36.972H174.619V111H120V36.972Z" fill="white"/>
</g>
</mask>
<g mask="url(#mask1_10_13)">
<path d="M136.792 98.9843C135.54 98.9843 134.468 98.3807 133.576 97.1737C132.685 95.9646 132.24 94.5118 132.24 92.8153V49.6323C132.24 47.9358 132.685 46.483 133.576 45.2739C134.468 44.0668 135.54 43.4633 136.792 43.4633H161.825L173.204 58.8858V92.8153C173.204 94.5118 172.759 95.9646 171.868 97.1737C170.976 98.3807 169.904 98.9843 168.653 98.9843H136.792ZM136.792 92.8153H168.653V61.9703H159.55V49.6323H136.792V92.8153ZM141.343 86.6463H164.101V80.4773H141.343V86.6463ZM141.343 61.9703H152.722V55.8013H141.343V61.9703ZM141.343 74.3083H164.101V68.1393H141.343V74.3083Z" fill="#FDC20F"/>
</g>
</g>
<path d="M43.2381 168.521C40.6774 167.977 39.1924 165.291 40.0934 162.833L54.5523 123.386C55.5995 120.529 53.8735 117.407 50.8973 116.774L31.0026 112.546C29.1788 112.158 28.1563 111.432 27.935 110.369C27.7186 109.306 28.2777 108.027 29.6123 106.531L86.5222 42.6903C87.55 41.5373 89.1171 41.0238 90.6279 41.345C93.1887 41.8893 94.6737 44.5754 93.7727 47.0335L79.3138 86.4801C78.2666 89.337 79.9926 92.459 82.9688 93.0917L102.863 97.3204C104.687 97.7081 105.707 98.4332 105.924 99.4959C106.145 100.56 105.588 101.839 104.254 103.335L47.3439 167.176C46.3161 168.329 44.749 168.842 43.2381 168.521Z" fill="#F2C94C"/>
<g filter="url(#filter2_d_10_13)">
<path d="M86.5003 142.48C86.3303 142.48 86.1603 142.423 85.9903 142.31C85.8769 142.197 85.7069 142.055 85.4803 141.885C85.3669 141.828 85.2253 141.772 85.0553 141.715C84.9419 141.602 84.8853 141.432 84.8853 141.205C84.8286 141.148 84.7153 141.12 84.5453 141.12C84.2619 141.12 84.1203 140.922 84.1203 140.525C84.1203 140.072 84.3469 139.76 84.8003 139.59L85.2253 139.25V139.335L85.5653 138.91H85.7353C86.0753 138.91 86.3019 138.74 86.4153 138.4C86.5853 138.06 86.9253 137.833 87.4353 137.72C87.7753 137.607 88.0586 137.635 88.2853 137.805C88.5119 137.975 88.7953 138.06 89.1353 138.06C89.4753 138.06 89.8436 137.947 90.2403 137.72L91.5153 137.465C91.6853 137.465 91.7703 137.522 91.7703 137.635C91.7703 137.748 91.6003 137.89 91.2603 138.06C90.9769 138.23 90.7786 138.372 90.6653 138.485L90.5803 138.57L90.4953 138.74L90.1553 139.165C89.8153 139.562 89.4186 140.043 88.9653 140.61C88.5686 141.12 88.1436 141.545 87.6903 141.885C87.1803 142.282 86.7836 142.48 86.5003 142.48ZM73.5803 169.255C73.2403 169.255 73.0703 169.057 73.0703 168.66C73.0703 168.377 73.1553 168.037 73.3253 167.64C73.7786 166.677 74.2886 165.317 74.8553 163.56C75.4786 161.803 76.2436 160.302 77.1503 159.055C77.7736 157.808 78.3403 156.59 78.8503 155.4C79.4169 154.153 79.9553 152.907 80.4653 151.66C80.4653 151.66 80.4086 151.632 80.2953 151.575C80.2386 151.462 80.2103 151.348 80.2103 151.235C79.8703 151.008 79.5019 150.697 79.1053 150.3C78.7653 149.847 78.7369 149.393 79.0203 148.94C79.1336 148.827 79.2186 148.77 79.2753 148.77C79.3319 148.77 79.3603 148.77 79.3603 148.77C79.3603 148.713 79.3319 148.685 79.2753 148.685C79.2753 148.628 79.2753 148.6 79.2753 148.6C79.2753 148.373 79.3886 148.232 79.6153 148.175C79.8419 148.118 79.9553 148.033 79.9553 147.92C80.0686 147.127 80.7486 146.532 81.9953 146.135C83.2419 145.738 84.3469 145.54 85.3103 145.54C86.2736 145.54 86.7553 145.682 86.7553 145.965C86.7553 146.078 86.5853 146.277 86.2453 146.56C86.0753 146.673 85.7919 146.928 85.3953 147.325C84.9986 147.722 84.6303 148.203 84.2903 148.77L83.6103 149.79C83.5536 149.903 83.4686 150.045 83.3553 150.215C83.2986 150.328 83.2136 150.442 83.1003 150.555C82.1936 152.198 81.4569 153.587 80.8903 154.72C80.3236 155.853 79.6436 157.298 78.8503 159.055C78.7369 159.395 78.6803 159.622 78.6803 159.735C78.6803 160.132 78.9069 160.33 79.3603 160.33C79.7003 160.33 80.0403 160.245 80.3803 160.075L81.2303 159.735C82.5903 158.488 84.0069 157.44 85.4803 156.59C85.5369 156.59 85.5653 156.59 85.5653 156.59C85.6219 156.533 85.6786 156.505 85.7353 156.505C85.9053 156.505 86.0186 156.618 86.0753 156.845C86.1319 157.015 86.0753 157.157 85.9053 157.27C84.2619 158.177 82.7319 159.338 81.3153 160.755C81.2586 160.868 81.2019 160.982 81.1453 161.095C81.0886 161.208 81.0036 161.322 80.8903 161.435C80.7769 161.548 80.6069 161.747 80.3803 162.03C80.2103 162.313 80.1253 162.483 80.1253 162.54C80.0686 162.71 79.9836 162.767 79.8703 162.71C79.8136 162.653 79.6436 162.738 79.3603 162.965C79.3036 163.022 79.2469 163.135 79.1903 163.305C79.1903 163.475 79.1619 163.617 79.1053 163.73C79.0486 163.9 78.9353 164.042 78.7653 164.155C78.6519 164.212 78.5953 164.268 78.5953 164.325C78.5386 164.552 78.4253 164.693 78.2553 164.75C78.1419 164.75 78.0286 164.807 77.9153 164.92C77.8586 164.977 77.8586 165.062 77.9153 165.175C77.9719 165.288 77.9436 165.402 77.8303 165.515C77.7736 165.685 77.7169 165.77 77.6603 165.77C77.6036 165.713 77.5186 165.742 77.4053 165.855C77.1786 166.082 77.0086 166.195 76.8953 166.195C76.5553 166.308 76.4136 166.393 76.4703 166.45C76.5836 166.507 76.6686 166.563 76.7253 166.62C76.8386 166.62 76.7536 166.705 76.4703 166.875C76.3569 166.932 76.2436 167.102 76.1303 167.385C76.0169 167.612 75.9036 167.782 75.7903 167.895C75.6203 168.008 75.4503 168.093 75.2803 168.15C75.1669 168.207 75.0253 168.32 74.8553 168.49C74.3453 169 73.9203 169.255 73.5803 169.255Z" fill="#FDC20F"/>
<path d="M92.8746 169.255C92.5346 169.255 92.3646 169.057 92.3646 168.66C92.3646 168.377 92.4496 168.037 92.6196 167.64C93.0729 166.677 93.5829 165.317 94.1496 163.56C94.7729 161.803 95.5379 160.302 96.4446 159.055C96.7279 158.432 97.1529 157.667 97.7196 156.76C98.3429 155.797 98.9379 154.663 99.5046 153.36V152.935C99.5046 152.765 99.5046 152.623 99.5046 152.51C99.5613 152.34 99.6179 152.17 99.6746 152C99.9013 151.547 100.1 151.235 100.27 151.065C100.496 150.895 100.723 150.583 100.95 150.13C100.95 150.017 100.95 149.903 100.95 149.79C101.006 149.677 101.063 149.563 101.12 149.45C101.006 149.563 100.978 149.478 101.035 149.195C100.921 149.195 101.035 148.912 101.375 148.345C101.601 147.835 101.771 147.552 101.885 147.495H101.97C102.196 147.155 102.395 146.872 102.565 146.645C102.735 146.362 102.791 146.192 102.735 146.135V145.965C102.735 145.568 102.848 145.2 103.075 144.86C103.358 144.52 103.613 144.152 103.84 143.755C104.01 143.528 104.151 143.415 104.265 143.415C104.378 143.415 104.435 143.443 104.435 143.5C104.491 143.5 104.548 143.5 104.605 143.5C104.775 143.5 104.86 143.358 104.86 143.075C104.86 142.962 104.831 142.82 104.775 142.65C104.775 142.48 104.746 142.282 104.69 142.055C104.746 141.772 104.973 141.545 105.37 141.375L105.625 141.29C105.908 140.1 106.248 139.307 106.645 138.91C106.758 138.797 106.871 138.683 106.985 138.57C107.098 138.457 107.211 138.343 107.325 138.23C108.005 137.493 108.515 136.7 108.855 135.85C108.968 135.623 109.11 135.453 109.28 135.34C109.506 135.17 109.705 134.972 109.875 134.745C109.988 134.575 110.016 134.405 109.96 134.235C109.96 134.008 109.988 133.81 110.045 133.64C110.328 133.187 110.526 132.932 110.64 132.875C110.753 132.818 110.866 132.762 110.98 132.705C111.15 132.592 111.433 132.337 111.83 131.94C112 131.657 112.17 131.373 112.34 131.09C112.566 130.807 112.793 130.523 113.02 130.24C113.36 129.843 113.728 129.56 114.125 129.39C114.521 129.22 114.918 128.965 115.315 128.625C115.428 128.512 115.485 128.342 115.485 128.115C115.485 127.832 115.541 127.633 115.655 127.52C117.638 125.933 119.763 124.602 122.03 123.525C124.353 122.448 126.138 121.91 127.385 121.91C127.838 121.91 128.263 121.938 128.66 121.995C129.113 122.052 129.538 122.137 129.935 122.25H130.105C130.388 122.25 130.671 122.307 130.955 122.42C131.238 122.533 131.493 122.647 131.72 122.76C131.946 122.76 132.23 122.817 132.57 122.93C132.853 123.043 133.023 123.213 133.08 123.44C133.136 123.667 133.08 123.837 132.91 123.95C132.853 124.007 132.768 124.007 132.655 123.95C132.541 123.893 132.428 123.865 132.315 123.865C132.201 123.865 132.088 123.808 131.975 123.695C131.861 123.582 131.748 123.497 131.635 123.44C131.408 123.44 131.153 123.468 130.87 123.525C130.643 123.582 130.388 123.61 130.105 123.61H129.85C129.453 123.61 129.17 123.553 129 123.44C128.886 123.27 128.603 123.242 128.15 123.355C128.093 123.355 127.923 123.383 127.64 123.44C127.356 123.497 127.158 123.525 127.045 123.525C125.005 124.035 123.22 124.885 121.69 126.075C120.16 127.208 118.8 128.483 117.61 129.9C116.476 131.317 115.371 132.677 114.295 133.98C113.785 135 113.275 135.822 112.765 136.445C112.708 136.502 112.651 136.473 112.595 136.36C112.538 136.247 112.481 136.247 112.425 136.36C112.255 136.53 112.113 136.813 112 137.21C111.943 137.55 111.83 137.833 111.66 138.06C111.603 138.117 111.546 138.088 111.49 137.975C111.433 137.862 111.348 137.862 111.235 137.975C111.178 138.032 111.093 138.258 110.98 138.655C110.923 138.995 110.838 139.222 110.725 139.335C110.045 140.242 109.308 141.12 108.515 141.97C107.721 142.82 106.928 143.812 106.135 144.945C105.001 146.702 103.925 148.43 102.905 150.13C101.885 151.83 100.808 153.7 99.6746 155.74C99.2779 156.42 98.9663 157.043 98.7396 157.61C98.5696 158.12 98.3713 158.602 98.1446 159.055C98.0313 159.225 97.9746 159.452 97.9746 159.735C97.9746 160.132 98.2013 160.33 98.6546 160.33C98.9946 160.33 99.3346 160.245 99.6746 160.075L100.525 159.735C101.885 158.488 103.301 157.44 104.775 156.59C104.831 156.59 104.86 156.59 104.86 156.59C104.916 156.533 104.973 156.505 105.03 156.505C105.2 156.505 105.313 156.618 105.37 156.845C105.426 157.015 105.37 157.157 105.2 157.27C103.556 158.177 102.026 159.338 100.61 160.755C100.553 160.868 100.496 160.982 100.44 161.095C100.383 161.208 100.298 161.322 100.185 161.435C100.071 161.548 99.9013 161.747 99.6746 162.03C99.5046 162.313 99.4196 162.483 99.4196 162.54C99.3629 162.71 99.2779 162.767 99.1646 162.71C99.1079 162.653 98.9379 162.738 98.6546 162.965C98.5979 163.022 98.5413 163.135 98.4846 163.305C98.4846 163.475 98.4563 163.617 98.3996 163.73C98.3429 163.9 98.2296 164.042 98.0596 164.155C97.9463 164.212 97.8896 164.268 97.8896 164.325C97.8329 164.552 97.7196 164.693 97.5496 164.75C97.4363 164.75 97.3229 164.807 97.2096 164.92C97.1529 164.977 97.1529 165.062 97.2096 165.175C97.2663 165.288 97.2379 165.402 97.1246 165.515C97.0679 165.685 97.0113 165.77 96.9546 165.77C96.8979 165.713 96.8129 165.742 96.6996 165.855C96.4729 166.082 96.3029 166.195 96.1896 166.195C95.8496 166.308 95.7079 166.393 95.7646 166.45C95.8779 166.507 95.9629 166.563 96.0196 166.62C96.1329 166.62 96.0479 166.705 95.7646 166.875C95.6513 166.932 95.5379 167.102 95.4246 167.385C95.3113 167.612 95.1979 167.782 95.0846 167.895C94.9146 168.008 94.7446 168.093 94.5746 168.15C94.4613 168.207 94.3196 168.32 94.1496 168.49C93.6396 169 93.2146 169.255 92.8746 169.255Z" fill="#FDC20F"/>
<path d="M112.667 169.255C112.327 169.255 112.157 169.057 112.157 168.66C112.157 168.377 112.242 168.037 112.412 167.64C112.865 166.677 113.375 165.317 113.942 163.56C114.565 161.803 115.33 160.302 116.237 159.055C116.52 158.432 116.945 157.667 117.512 156.76C118.135 155.797 118.73 154.663 119.297 153.36V152.935C119.297 152.765 119.297 152.623 119.297 152.51C119.354 152.34 119.41 152.17 119.467 152C119.694 151.547 119.892 151.235 120.062 151.065C120.289 150.895 120.515 150.583 120.742 150.13C120.742 150.017 120.742 149.903 120.742 149.79C120.799 149.677 120.855 149.563 120.912 149.45C120.799 149.563 120.77 149.478 120.827 149.195C120.714 149.195 120.827 148.912 121.167 148.345C121.394 147.835 121.564 147.552 121.677 147.495H121.762C121.989 147.155 122.187 146.872 122.357 146.645C122.527 146.362 122.584 146.192 122.527 146.135V145.965C122.527 145.568 122.64 145.2 122.867 144.86C123.15 144.52 123.405 144.152 123.632 143.755C123.802 143.528 123.944 143.415 124.057 143.415C124.17 143.415 124.227 143.443 124.227 143.5C124.284 143.5 124.34 143.5 124.397 143.5C124.567 143.5 124.652 143.358 124.652 143.075C124.652 142.962 124.624 142.82 124.567 142.65C124.567 142.48 124.539 142.282 124.482 142.055C124.539 141.772 124.765 141.545 125.162 141.375L125.417 141.29C125.7 140.1 126.04 139.307 126.437 138.91C126.55 138.797 126.664 138.683 126.777 138.57C126.89 138.457 127.004 138.343 127.117 138.23C127.797 137.493 128.307 136.7 128.647 135.85C128.76 135.623 128.902 135.453 129.072 135.34C129.299 135.17 129.497 134.972 129.667 134.745C129.78 134.575 129.809 134.405 129.752 134.235C129.752 134.008 129.78 133.81 129.837 133.64C130.12 133.187 130.319 132.932 130.432 132.875C130.545 132.818 130.659 132.762 130.772 132.705C130.942 132.592 131.225 132.337 131.622 131.94C131.792 131.657 131.962 131.373 132.132 131.09C132.359 130.807 132.585 130.523 132.812 130.24C133.152 129.843 133.52 129.56 133.917 129.39C134.314 129.22 134.71 128.965 135.107 128.625C135.22 128.512 135.277 128.342 135.277 128.115C135.277 127.832 135.334 127.633 135.447 127.52C137.43 125.933 139.555 124.602 141.822 123.525C144.145 122.448 145.93 121.91 147.177 121.91C147.63 121.91 148.055 121.938 148.452 121.995C148.905 122.052 149.33 122.137 149.727 122.25H149.897C150.18 122.25 150.464 122.307 150.747 122.42C151.03 122.533 151.285 122.647 151.512 122.76C151.739 122.76 152.022 122.817 152.362 122.93C152.645 123.043 152.815 123.213 152.872 123.44C152.929 123.667 152.872 123.837 152.702 123.95C152.645 124.007 152.56 124.007 152.447 123.95C152.334 123.893 152.22 123.865 152.107 123.865C151.994 123.865 151.88 123.808 151.767 123.695C151.654 123.582 151.54 123.497 151.427 123.44C151.2 123.44 150.945 123.468 150.662 123.525C150.435 123.582 150.18 123.61 149.897 123.61H149.642C149.245 123.61 148.962 123.553 148.792 123.44C148.679 123.27 148.395 123.242 147.942 123.355C147.885 123.355 147.715 123.383 147.432 123.44C147.149 123.497 146.95 123.525 146.837 123.525C144.797 124.035 143.012 124.885 141.482 126.075C139.952 127.208 138.592 128.483 137.402 129.9C136.269 131.317 135.164 132.677 134.087 133.98C133.577 135 133.067 135.822 132.557 136.445C132.5 136.502 132.444 136.473 132.387 136.36C132.33 136.247 132.274 136.247 132.217 136.36C132.047 136.53 131.905 136.813 131.792 137.21C131.735 137.55 131.622 137.833 131.452 138.06C131.395 138.117 131.339 138.088 131.282 137.975C131.225 137.862 131.14 137.862 131.027 137.975C130.97 138.032 130.885 138.258 130.772 138.655C130.715 138.995 130.63 139.222 130.517 139.335C129.837 140.242 129.1 141.12 128.307 141.97C127.514 142.82 126.72 143.812 125.927 144.945C124.794 146.702 123.717 148.43 122.697 150.13C121.677 151.83 120.6 153.7 119.467 155.74C119.07 156.42 118.759 157.043 118.532 157.61C118.362 158.12 118.164 158.602 117.937 159.055C117.824 159.225 117.767 159.452 117.767 159.735C117.767 160.132 117.994 160.33 118.447 160.33C118.787 160.33 119.127 160.245 119.467 160.075L120.317 159.735C121.677 158.488 123.094 157.44 124.567 156.59C124.624 156.59 124.652 156.59 124.652 156.59C124.709 156.533 124.765 156.505 124.822 156.505C124.992 156.505 125.105 156.618 125.162 156.845C125.219 157.015 125.162 157.157 124.992 157.27C123.349 158.177 121.819 159.338 120.402 160.755C120.345 160.868 120.289 160.982 120.232 161.095C120.175 161.208 120.09 161.322 119.977 161.435C119.864 161.548 119.694 161.747 119.467 162.03C119.297 162.313 119.212 162.483 119.212 162.54C119.155 162.71 119.07 162.767 118.957 162.71C118.9 162.653 118.73 162.738 118.447 162.965C118.39 163.022 118.334 163.135 118.277 163.305C118.277 163.475 118.249 163.617 118.192 163.73C118.135 163.9 118.022 164.042 117.852 164.155C117.739 164.212 117.682 164.268 117.682 164.325C117.625 164.552 117.512 164.693 117.342 164.75C117.229 164.75 117.115 164.807 117.002 164.92C116.945 164.977 116.945 165.062 117.002 165.175C117.059 165.288 117.03 165.402 116.917 165.515C116.86 165.685 116.804 165.77 116.747 165.77C116.69 165.713 116.605 165.742 116.492 165.855C116.265 166.082 116.095 166.195 115.982 166.195C115.642 166.308 115.5 166.393 115.557 166.45C115.67 166.507 115.755 166.563 115.812 166.62C115.925 166.62 115.84 166.705 115.557 166.875C115.444 166.932 115.33 167.102 115.217 167.385C115.104 167.612 114.99 167.782 114.877 167.895C114.707 168.008 114.537 168.093 114.367 168.15C114.254 168.207 114.112 168.32 113.942 168.49C113.432 169 113.007 169.255 112.667 169.255Z" fill="#FDC20F"/>
<path d="M145.379 142.48C145.209 142.48 145.039 142.423 144.869 142.31C144.756 142.197 144.586 142.055 144.359 141.885C144.246 141.828 144.104 141.772 143.934 141.715C143.821 141.602 143.764 141.432 143.764 141.205C143.708 141.148 143.594 141.12 143.424 141.12C143.141 141.12 142.999 140.922 142.999 140.525C142.999 140.072 143.226 139.76 143.679 139.59L144.104 139.25V139.335L144.444 138.91H144.614C144.954 138.91 145.181 138.74 145.294 138.4C145.464 138.06 145.804 137.833 146.314 137.72C146.654 137.607 146.938 137.635 147.164 137.805C147.391 137.975 147.674 138.06 148.014 138.06C148.354 138.06 148.723 137.947 149.119 137.72L150.394 137.465C150.564 137.465 150.649 137.522 150.649 137.635C150.649 137.748 150.479 137.89 150.139 138.06C149.856 138.23 149.658 138.372 149.544 138.485L149.459 138.57L149.374 138.74L149.034 139.165C148.694 139.562 148.298 140.043 147.844 140.61C147.448 141.12 147.023 141.545 146.569 141.885C146.059 142.282 145.663 142.48 145.379 142.48ZM132.459 169.255C132.119 169.255 131.949 169.057 131.949 168.66C131.949 168.377 132.034 168.037 132.204 167.64C132.658 166.677 133.168 165.317 133.734 163.56C134.358 161.803 135.123 160.302 136.029 159.055C136.653 157.808 137.219 156.59 137.729 155.4C138.296 154.153 138.834 152.907 139.344 151.66C139.344 151.66 139.288 151.632 139.174 151.575C139.118 151.462 139.089 151.348 139.089 151.235C138.749 151.008 138.381 150.697 137.984 150.3C137.644 149.847 137.616 149.393 137.899 148.94C138.013 148.827 138.098 148.77 138.154 148.77C138.211 148.77 138.239 148.77 138.239 148.77C138.239 148.713 138.211 148.685 138.154 148.685C138.154 148.628 138.154 148.6 138.154 148.6C138.154 148.373 138.268 148.232 138.494 148.175C138.721 148.118 138.834 148.033 138.834 147.92C138.948 147.127 139.628 146.532 140.874 146.135C142.121 145.738 143.226 145.54 144.189 145.54C145.153 145.54 145.634 145.682 145.634 145.965C145.634 146.078 145.464 146.277 145.124 146.56C144.954 146.673 144.671 146.928 144.274 147.325C143.878 147.722 143.509 148.203 143.169 148.77L142.489 149.79C142.433 149.903 142.348 150.045 142.234 150.215C142.178 150.328 142.093 150.442 141.979 150.555C141.073 152.198 140.336 153.587 139.769 154.72C139.203 155.853 138.523 157.298 137.729 159.055C137.616 159.395 137.559 159.622 137.559 159.735C137.559 160.132 137.786 160.33 138.239 160.33C138.579 160.33 138.919 160.245 139.259 160.075L140.109 159.735C141.469 158.488 142.886 157.44 144.359 156.59C144.416 156.59 144.444 156.59 144.444 156.59C144.501 156.533 144.558 156.505 144.614 156.505C144.784 156.505 144.898 156.618 144.954 156.845C145.011 157.015 144.954 157.157 144.784 157.27C143.141 158.177 141.611 159.338 140.194 160.755C140.138 160.868 140.081 160.982 140.024 161.095C139.968 161.208 139.883 161.322 139.769 161.435C139.656 161.548 139.486 161.747 139.259 162.03C139.089 162.313 139.004 162.483 139.004 162.54C138.948 162.71 138.863 162.767 138.749 162.71C138.693 162.653 138.523 162.738 138.239 162.965C138.183 163.022 138.126 163.135 138.069 163.305C138.069 163.475 138.041 163.617 137.984 163.73C137.928 163.9 137.814 164.042 137.644 164.155C137.531 164.212 137.474 164.268 137.474 164.325C137.418 164.552 137.304 164.693 137.134 164.75C137.021 164.75 136.908 164.807 136.794 164.92C136.738 164.977 136.738 165.062 136.794 165.175C136.851 165.288 136.823 165.402 136.709 165.515C136.653 165.685 136.596 165.77 136.539 165.77C136.483 165.713 136.398 165.742 136.284 165.855C136.058 166.082 135.888 166.195 135.774 166.195C135.434 166.308 135.293 166.393 135.349 166.45C135.463 166.507 135.548 166.563 135.604 166.62C135.718 166.62 135.633 166.705 135.349 166.875C135.236 166.932 135.123 167.102 135.009 167.385C134.896 167.612 134.783 167.782 134.669 167.895C134.499 168.008 134.329 168.093 134.159 168.15C134.046 168.207 133.904 168.32 133.734 168.49C133.224 169 132.799 169.255 132.459 169.255Z" fill="#FDC20F"/>
<path d="M151.584 169.255C151.244 169.255 151.074 169.057 151.074 168.66C151.074 168.377 151.159 168.037 151.329 167.64C151.782 166.677 152.32 165.317 152.944 163.56C153.567 161.803 154.332 160.302 155.239 159.055L158.554 151.66C158.554 151.66 158.497 151.632 158.384 151.575C158.27 151.462 158.214 151.348 158.214 151.235C157.874 151.008 157.505 150.697 157.109 150.3C156.769 149.847 156.74 149.393 157.024 148.94C157.137 148.827 157.222 148.77 157.279 148.77C157.335 148.77 157.364 148.77 157.364 148.77V148.6C157.364 148.373 157.449 148.232 157.619 148.175C157.845 148.118 157.987 148.033 158.044 147.92C158.157 147.127 158.809 146.532 159.999 146.135C161.245 145.738 162.35 145.54 163.314 145.54C164.277 145.54 164.759 145.682 164.759 145.965C164.759 146.135 164.589 146.333 164.249 146.56C164.135 146.673 163.852 146.928 163.399 147.325C163.002 147.722 162.634 148.203 162.294 148.77L161.699 149.79L161.104 150.555C160.197 152.198 159.46 153.587 158.894 154.72C158.327 155.853 157.647 157.298 156.854 159.055C156.684 159.395 156.599 159.678 156.599 159.905C156.599 160.188 156.712 160.33 156.939 160.33C157.052 160.33 157.165 160.302 157.279 160.245C157.449 160.132 157.619 160.047 157.789 159.99C158.242 159.707 158.61 159.452 158.894 159.225C159.234 158.942 159.602 158.658 159.999 158.375C160.169 158.205 160.31 158.205 160.424 158.375C160.537 158.488 160.537 158.658 160.424 158.885C160.197 159.338 160.027 159.622 159.914 159.735C159.857 159.792 159.772 159.848 159.659 159.905C159.545 159.962 159.29 160.217 158.894 160.67L158.554 161.35C158.44 161.463 158.299 161.69 158.129 162.03C158.015 162.313 157.959 162.483 157.959 162.54C157.959 162.653 157.902 162.71 157.789 162.71C157.675 162.653 157.505 162.738 157.279 162.965C157.222 163.022 157.194 163.135 157.194 163.305C157.25 163.475 157.222 163.617 157.109 163.73C157.052 163.9 156.967 164.042 156.854 164.155C156.74 164.212 156.684 164.268 156.684 164.325C156.627 164.552 156.514 164.693 156.344 164.75C156.23 164.75 156.117 164.807 156.004 164.92C155.947 164.92 155.919 164.977 155.919 165.09C155.919 165.543 155.862 165.742 155.749 165.685C155.635 165.628 155.522 165.685 155.409 165.855C155.295 166.082 155.154 166.195 154.984 166.195C154.644 166.308 154.502 166.393 154.559 166.45C154.615 166.507 154.7 166.563 154.814 166.62C154.927 166.62 154.842 166.705 154.559 166.875C154.389 166.932 154.247 167.102 154.134 167.385C154.02 167.612 153.907 167.782 153.794 167.895C153.68 168.008 153.539 168.093 153.369 168.15C153.199 168.207 153.057 168.32 152.944 168.49C152.434 169 151.98 169.255 151.584 169.255ZM176.914 168.575C176.687 168.575 176.489 168.575 176.319 168.575C176.149 168.518 175.979 168.462 175.809 168.405C175.242 168.292 174.732 168.122 174.279 167.895C173.882 167.668 173.542 167.243 173.259 166.62C173.202 166.337 173.06 165.968 172.834 165.515C172.664 165.062 172.55 164.637 172.494 164.24C172.437 163.957 172.409 163.617 172.409 163.22C172.352 162.937 172.324 162.568 172.324 162.115C172.21 161.548 172.154 161.038 172.154 160.585C172.21 160.132 172.239 159.593 172.239 158.97C172.239 158.347 172.267 157.893 172.324 157.61C172.437 157.1 172.494 156.845 172.494 156.845C172.494 156.788 172.494 156.505 172.494 155.995C172.55 155.315 172.579 154.607 172.579 153.87C172.579 153.133 172.607 152.538 172.664 152.085C172.834 150.385 172.494 149.535 171.644 149.535C171.304 149.535 170.85 149.677 170.284 149.96C170.227 150.13 170.114 150.243 169.944 150.3C169.83 150.3 169.66 150.357 169.434 150.47L169.009 150.725C169.009 150.782 168.952 150.81 168.839 150.81C168.725 150.753 168.669 150.782 168.669 150.895C168.725 151.122 168.697 151.263 168.584 151.32C168.527 151.377 168.442 151.348 168.329 151.235L167.394 151.915C167.394 151.972 167.309 152.085 167.139 152.255L167.054 152.34C166.827 152.567 166.629 152.68 166.459 152.68L166.204 152.935C166.204 152.992 166.147 153.105 166.034 153.275C165.977 153.388 165.835 153.417 165.609 153.36L165.184 153.785C164.957 154.125 164.759 154.323 164.589 154.38C164.475 154.437 164.334 154.493 164.164 154.55L163.484 155.4L163.144 155.485C163.144 155.712 162.889 156.052 162.379 156.505C161.925 156.958 161.614 157.27 161.444 157.44C161.274 157.61 161.104 157.695 160.934 157.695C160.82 157.695 160.764 157.638 160.764 157.525C160.764 157.468 160.905 157.242 161.189 156.845C161.415 156.618 161.755 156.193 162.209 155.57C162.719 154.947 163.002 154.663 163.059 154.72C163.342 154.437 163.54 154.153 163.654 153.87C163.767 153.53 163.965 153.247 164.249 153.02C164.249 153.077 164.249 153.133 164.249 153.19C164.305 153.19 164.334 153.19 164.334 153.19C164.447 153.19 164.589 153.048 164.759 152.765C164.929 152.425 165.042 152.283 165.099 152.34L166.544 151.065C166.544 151.008 166.685 150.895 166.969 150.725C167.195 150.612 167.337 150.555 167.394 150.555C167.45 150.555 167.592 150.385 167.819 150.045L168.414 149.62C168.47 149.507 168.527 149.535 168.584 149.705C168.697 149.818 168.782 149.847 168.839 149.79L169.094 149.195C169.207 149.025 169.377 148.883 169.604 148.77C169.887 148.6 170.17 148.43 170.454 148.26C171.134 147.58 171.644 147.24 171.984 147.24H172.324C173.06 146.957 173.74 146.815 174.364 146.815C175.27 146.815 175.979 147.155 176.489 147.835C176.602 148.005 176.715 148.317 176.829 148.77C176.942 148.827 176.97 148.912 176.914 149.025C176.914 149.082 176.942 149.167 176.999 149.28C177.055 149.393 177.169 149.535 177.339 149.705C177.509 149.818 177.594 149.96 177.594 150.13V150.3C177.594 150.527 177.452 150.725 177.169 150.895C177.452 151.122 177.565 151.263 177.509 151.32C177.509 151.32 177.48 151.405 177.424 151.575L177.254 152.765C177.197 153.162 177.112 153.473 176.999 153.7C176.885 153.87 176.772 154.182 176.659 154.635C176.885 154.975 176.885 155.202 176.659 155.315H176.489L176.404 155.655C176.404 155.768 176.46 155.882 176.574 155.995L176.319 156.505C176.375 156.448 176.404 156.448 176.404 156.505C176.46 156.505 176.489 156.505 176.489 156.505C176.432 156.618 176.347 156.845 176.234 157.185C176.12 157.468 176.035 157.695 175.979 157.865C175.922 158.148 175.809 158.29 175.639 158.29C175.469 158.29 175.412 158.432 175.469 158.715C175.525 158.772 175.554 158.97 175.554 159.31C175.61 159.593 175.582 159.735 175.469 159.735L175.299 160.755V161.01C175.299 161.293 175.242 161.577 175.129 161.86C175.072 162.143 175.015 162.427 174.959 162.71C174.902 162.993 174.845 163.305 174.789 163.645C174.789 163.928 174.789 164.212 174.789 164.495C174.789 164.722 174.789 164.977 174.789 165.26C174.845 165.487 174.902 165.713 174.959 165.94C174.959 165.997 175.044 166.167 175.214 166.45C175.384 166.733 175.469 166.903 175.469 166.96L175.724 167.215C175.837 167.272 176.007 167.272 176.234 167.215C176.517 167.158 176.715 167.187 176.829 167.3C177.339 167.357 177.99 167.102 178.784 166.535C179.634 165.912 180.399 165.232 181.079 164.495C181.249 164.325 181.419 164.24 181.589 164.24C181.702 164.24 181.787 164.325 181.844 164.495C181.9 164.665 181.844 164.892 181.674 165.175C180.767 166.478 179.917 167.385 179.124 167.895C178.33 168.348 177.594 168.575 176.914 168.575Z" fill="#FDC20F"/>
<path d="M191.368 147.58C191.311 147.58 191.254 147.523 191.198 147.41C191.198 147.24 191.226 147.07 191.283 146.9C191.566 146.39 191.963 145.88 192.473 145.37L193.068 144.605C194.144 143.302 195.079 141.857 195.873 140.27C196.156 139.76 196.524 139.08 196.978 138.23C197.488 137.323 197.743 136.02 197.743 134.32L198.338 134.575C198.451 134.575 198.536 134.575 198.593 134.575C198.706 134.518 198.791 134.49 198.848 134.49C199.244 134.49 199.783 134.575 200.463 134.745C201.143 134.858 201.483 135.17 201.483 135.68C201.483 136.53 201.228 137.238 200.718 137.805C200.208 138.372 199.641 138.882 199.018 139.335L198.763 140.015L198.338 140.27L198.083 140.695L197.913 140.61L197.233 140.95L197.148 141.29L197.318 141.46C197.318 141.46 197.318 141.545 197.318 141.715C197.318 141.885 197.261 142.027 197.148 142.14H196.383C195.986 142.14 195.759 142.253 195.703 142.48C195.816 142.593 195.873 142.735 195.873 142.905C195.929 143.075 195.873 143.16 195.703 143.16C195.589 143.16 195.504 143.188 195.448 143.245C195.391 143.302 195.363 143.33 195.363 143.33C195.249 143.33 195.164 143.415 195.108 143.585L195.023 144.095C194.966 144.548 194.796 144.86 194.513 145.03C194.229 145.257 194.059 145.37 194.003 145.37C193.946 145.313 193.804 145.257 193.578 145.2L193.493 145.625C193.436 145.568 193.351 145.54 193.238 145.54C193.124 145.54 193.068 145.625 193.068 145.795C193.068 145.965 193.096 146.107 193.153 146.22C192.926 146.39 192.813 146.503 192.813 146.56C192.869 146.617 192.586 146.673 191.963 146.73C191.793 146.73 191.679 146.815 191.623 146.985C191.623 147.155 191.566 147.325 191.453 147.495C191.453 147.552 191.424 147.58 191.368 147.58Z" fill="#FDC20F"/>
</g>
<defs>
<filter id="filter0_f_10_13" x="130.208" y="37.2535" width="48.9643" height="63.521" filterUnits="userSpaceOnUse" color-interpolation-filters="sRGB">
<feFlood flood-opacity="0" result="BackgroundImageFix"/>
<feBlend mode="normal" in="SourceGraphic" in2="BackgroundImageFix" result="shape"/>
<feGaussianBlur stdDeviation="2" result="effect1_foregroundBlur_10_13"/>
</filter>
<filter id="filter1_d_10_13" x="128.24" y="43.4633" width="48.9643" height="63.521" filterUnits="userSpaceOnUse" color-interpolation-filters="sRGB">
<feFlood flood-opacity="0" result="BackgroundImageFix"/>
<feColorMatrix in="SourceAlpha" type="matrix" values="0 0 0 0 0 0 0 0 0 0 0 0 0 0 0 0 0 0 127 0" result="hardAlpha"/>
<feOffset dy="4"/>
<feGaussianBlur stdDeviation="2"/>
<feComposite in2="hardAlpha" operator="out"/>
<feColorMatrix type="matrix" values="0 0 0 0 0 0 0 0 0 0 0 0 0 0 0 0 0 0 0.25 0"/>
<feBlend mode="normal" in2="BackgroundImageFix" result="effect1_dropShadow_10_13"/>
<feBlend mode="normal" in="SourceGraphic" in2="effect1_dropShadow_10_13" result="shape"/>
</filter>
<filter id="filter2_d_10_13" x="69.0703" y="121.91" width="136.412" height="55.345" filterUnits="userSpaceOnUse" color-interpolation-filters="sRGB">
<feFlood flood-opacity="0" result="BackgroundImageFix"/>
<feColorMatrix in="SourceAlpha" type="matrix" values="0 0 0 0 0 0 0 0 0 0 0 0 0 0 0 0 0 0 127 0" result="hardAlpha"/>
<feOffset dy="4"/>
<feGaussianBlur stdDeviation="2"/>
<feComposite in2="hardAlpha" operator="out"/>
<feColorMatrix type="matrix" values="0 0 0 0 0 0 0 0 0 0 0 0 0 0 0 0 0 0 0.25 0"/>
<feBlend mode="normal" in2="BackgroundImageFix" result="effect1_dropShadow_10_13"/>
<feBlend mode="normal" in="SourceGraphic" in2="effect1_dropShadow_10_13" result="shape"/>
</filter>
</defs>
</svg>
